<?xml version="1.0" encoding="utf-8"?><!DOCTYPE svg PUBLIC "-//W3C//DTD SVG 1.1//EN" "http://www.w3.org/Graphics/SVG/1.1/DTD/svg11.dtd"><svg width="90" height="90" viewBox="0 0 90 90" xmlns="http://www.w3.org/2000/svg" xmlns:xlink="http://www.w3.org/1999/xlink"><svg viewBox="0 0 30 30" width="30" height="30" id="brain" y="30" xmlns="http://www.w3.org/2000/svg"><path d="M30 16.9c0-.8-.2-1.4-.6-2 .5-.6.6-1.4.6-2.1 0-1.4-.8-2.7-1.8-3.5.2-.3.2-.8.2-1.1 0-1.5-1.1-2.7-2.6-3-.2-1.5-1.2-2.7-2.7-2.9-.5-.9-1.5-1.7-2.6-1.7-.3 0-.6 0-.9.2-.5-.6-1.1-.9-1.7-.9-1.2 0-2.3.9-2.3 2.1v7.7c0 .9.5 1.8 1.2 2.4-.8.6-1.2 1.5-1.2 2.6v4.7c0 .6.2 1.2.5 1.7-.3.6-.5 1.1-.5 1.7v3.6c0 1.7 1.4 3 3.1 3 1.2 0 2.1-.5 2.7-1.5.5.2.9.2 1.2.2 1.7 0 3.1-1.4 3.1-3 1.7-.6 3.1-2 3.1-3.8 0-.6-.2-1.2-.5-1.8 1.1-.2 1.7-1.4 1.7-2.6zM27.7 19c-.8-1.2-2.3-1.7-3.1-1.7-.2-.6-.6-1.2-1.1-1.7-.2-.2-.6-.2-.8.2-.2.2-.2.5.2.6.5.5.8.9.8 1.5 0 1.1-.9 2-2 2s-2-.9-2-2c0-.5.2-.9.5-1.2.2 0 .3-.2.5-.2 1.2-.5 1.7-1.7 1.2-2.9-.2-.3-.5-.5-.8-.3-.3.2-.5.5-.3.8.2.5-.2 1.2-.6 1.5-.6.2-1.2-.2-1.5-.6-.2-.3-.5-.5-.8-.3-.3.2-.5.5-.3.8.2.6.6 1.1 1.2 1.2-.2.5-.5.9-.5 1.5 0 1.7 1.4 3 3.1 3 1.5 0 2.9-1.2 3.1-2.7.6.2 2 .3 2.3 1.4 0 0 0 .2.2.2.3.5.6 1.1.6 1.7 0 1.2-.8 2.3-2 2.7-.2-1.1-.9-1.7-.9-1.8-.2-.2-.6-.2-.8 0-.2.2-.2.5 0 .8 0 0 .8.8.6 1.7v.7c0 1.1-.9 2-2 2-.3 0-.6-.2-.8-.2.2-.6.3-1.7-.5-2.7.3-.6.3-1.4-.2-2-.2-.2-.5-.3-.8-.2-.2.2-.3.6-.2.8.2.3.2.8-.2.9s-.8.2-.9-.2c.1-.3-.3-.4-.5-.3-.2.2-.3.5-.2.8.3.6.9.8 1.5.8.2 0 .6 0 .8-.2.6.9.2 1.7.2 1.8 0 0 0 .2-.2.2-.3.9-1.1 1.4-2 1.4-1.1 0-2-.9-2-2v-3.6c0-.2.2-.6.2-.8.6.3 1.2.6 2.3.6h.2c.3 0 .5-.2.5-.6 0-.3-.2-.5-.5-.5H19c-1.2 0-2-.6-2.1-.8-.3-.5-.5-.9-.5-1.2v-4.7c0-.9.5-1.7 1.2-2.1.2-.2 1.2-.8 2.3.2.2.2.2.2.3.2s.3-.2.5-.2c.2-.2.2-.6-.2-.8-1.2-1.1-2.7-.9-3.4-.5-.6-.5-.9-1.1-.9-1.8v-8c0-.6.6-1.1 1.1-1.1.5 0 .8.2.9.6-.2.5-.3 1.1-.6 1.2-.2.2-.3.5-.2.8.2.2.3.2.5.2s.2 0 .3-.2c.8-.5 1.1-1.4 1.2-2 .2-.2.3-.2.6-.2.8 0 1.4.5 1.5 1.2 0 .3 0 1.5-.8 2.3-.2.3-.6.5-.9.6-.2-.6-.6-1.1-1.2-1.2-.3-.2-.6 0-.8.3-.2.3 0 .6.3.6.3.2.6.5.5.8-.2.3-.6.6-.9.5-.3-.2-.6 0-.8.3-.2.3 0 .6.3.6.2.2.5.2.6.2.6 0 1.2-.3 1.5-.9.9-.2 1.5-.5 2-.9.8-.8.9-1.8.9-2.4.9.2 1.5.9 1.5 2V6c0 .3-.2.9-.5 1.1-.2.2-.3.6-.2.8.2.2.3.2.5.2s.2 0 .3-.2c.6-.3.8-.9.9-1.5.9.2 1.5.9 1.5 2 0 .2 0 .3-.2.6-.9-.5-2.4-.6-4.1.5-.5-.3-1.1-.5-1.7-.5s-.9 0-1.5.6c-.2.2-.2.6 0 .8.2.2.6.2.8 0 .2-.3.6-.5 1.1-.6.5 0 .8.2 1.1.3.6.6.6 1.5.2 2-.2.2-.2.6 0 .8.2.2.2.2.3.2.2 0 .3-.2.5-.2.8-.9.9-2.1.2-3 1.8-1.1 3.2 0 3.2 0 1.1.6 1.7 1.5 1.7 2.7 0 .5-.2.9-.2 1.2-.5-.3-.9-.5-1.2-.6-.2-.9-.9-1.7-1.7-1.8-.3-.2-.6.2-.8.3-.2.3.2.6.3.6.6.2 1.1.8 1.1 1.4 0 .6-.3 1.1-.8 1.2-.2.2-.3.6-.2.8.2.2.3.2.5.2s.2 0 .3-.2c.6-.3 1.1-.9 1.2-1.7.2.2.6.2.9.6.5.5.6 1.1.6 1.7 1.1 1.4.7 2.1-.1 2.7zM14.6 10.1V2.2c0-1.2-.9-2.1-2.3-2.1-.6 0-1.2.3-1.7.9-.3-.2-.5-.2-.9-.2-1.1 0-2.1.6-2.6 1.7-1.5.1-2.7 1.4-2.7 2.9-1.5.2-2.6 1.5-2.6 3 0 .3.2.8.2 1.1C.8 10.3.2 11.6.2 13c0 .8.2 1.5.6 2.1-.5.6-.6 1.2-.6 2 0 1.2.6 2.4 1.7 3-.3.6-.5 1.2-.5 1.8 0 1.8 1.2 3.3 3.1 3.8 0 1.7 1.4 3 3.1 3 .5 0 .9-.2 1.2-.2.6.9 1.5 1.5 2.7 1.5 1.7 0 3.1-1.4 3.1-3v-3.8c0-.5-.2-1.1-.5-1.5.3-.6.5-1.1.5-1.7v-5.2c0-.9-.5-2-1.2-2.6.7-.3 1.2-1.2 1.2-2.1zm-1.2 0c0 .8-.5 1.4-.9 1.8-.8-.5-2.1-.6-3.4.5-.2.2-.2.6-.2.8.2.2.2.2.5.2.2 0 .2 0 .3-.2 1.2-.9 2.3-.3 2.3-.2.8.5 1.2 1.2 1.2 2.1v4.8c0 .5-.2.9-.5 1.2-.2.2-.9.8-2.1.8h-.2c-.3 0-.6.2-.6.6s.2.6.6.6h.2c1.1 0 2-.3 2.3-.6.2.2.2.5.2.8V27c0 1.1-.9 2-2 2-.9 0-1.7-.6-2-1.4 0 0 0-.2-.2-.2-.2-.2-.5-.9.2-1.8.2.2.5.2.8.2.5 0 1.2-.2 1.5-.8.2-.2.2-.6-.2-.8-.2-.2-.6-.2-.8.2-.2.3-.6.5-.9.2-.3-.2-.5-.6-.2-.9.2-.2.2-.6-.2-.8-.2-.2-.6-.2-.8.2-.5.6-.5 1.4-.2 2-.8 1.1-.8 2-.5 2.7.1.2-.2.2-.5.2-1.1 0-2-.9-2-2v-.3-.2-.2c0-1.4.8-2.1.8-2.1.2-.2.2-.6 0-.8-.2-.2-.6-.2-.8 0 0 0-.8.8-.9 1.8-1.2-.5-2-1.5-2-2.7 0-.6.2-1.2.6-1.7H3c.3-1.1 1.7-1.4 2.3-1.4.2 1.5 1.5 2.7 3.1 2.7 1.7 0 3.1-1.4 3.1-3 0-.5-.2-1.1-.5-1.5.6-.2.9-.6 1.2-1.2.2-.3 0-.6-.3-.8-.3-.2-.6 0-.8.3-.2.6-.9.9-1.5.6-.6-.2-.9-.9-.6-1.5.2-.3 0-.6-.3-.8-.3-.2-.6 0-.8.3-.5 1.3.1 2.5 1.2 2.9.2.2.3.2.5.2.3.3.6.9.6 1.2 0 1.1-.9 2-2 2s-2-.9-2-2c0-.6.3-1.2.8-1.5.2-.2.3-.6.2-.8-.2-.2-.6-.2-.8-.2-.6.5-.9 1.1-1.1 1.7-.8 0-2.3.3-3.1 1.5-.6-.5-1.1-1.2-1.1-2.1 0-.6.2-1.2.6-1.5.2-.5.5-.6.9-.6.2.6.6 1.2 1.2 1.7.2 0 .2.1.4.1s.3-.2.5-.2c.2-.2.2-.6-.2-.8-.5-.2-.8-.6-.8-1.1 0-.6.5-1.2 1.1-1.4.3-.2.5-.5.3-.6-.2-.3-.5-.5-.8-.3-.9.3-1.5.9-1.7 1.8-.3 0-.8.2-1.2.6-.2-.5-.2-.8-.2-1.2 0-1.2.6-2.3 1.7-2.7.2 0 1.5-1.1 3.2 0-.5.9-.5 2.1.2 3 .2.2.2.2.5.2.2 0 .2 0 .3-.2.2-.2.2-.5 0-.8-.6-.6-.5-1.5.2-2 .3-.2.6-.5 1.1-.3.5 0 .8.2 1.1.6.2.2.6.2.8 0 .2-.2.2-.6 0-.8-.6-.4-1.2-.7-2-.7-.6 0-1.1.2-1.7.5-1.6-1.1-3-1-4.1-.5 0-.2-.2-.3-.2-.6 0-.9.6-1.7 1.5-2 .2.4.4 1 1 1.5.2.2.2.2.3.2.2 0 .3-.2.5-.2.1-.1.1-.6-.2-.8-.1-.1-.4-.7-.4-1v-.2-.3c0-.9.6-1.7 1.7-2 0 .6.2 1.7.9 2.4.5.6 1.2.9 2 .9.3.6.9.9 1.7.9.2 0 .5 0 .6-.2.3-.2.5-.5.3-.6-.2-.2-.5-.3-.8-.2-.3.2-.8-.2-.9-.5-.2-.3.2-.6.5-.8.3-.2.5-.5.3-.6-.2-.3-.5-.5-.8-.3-.6.3-1 .9-1.3 1.3-.4-.1-.7-.3-.9-.6-.6-.8-.8-2-.8-2.3.2-.6 1-1.2 1.7-1.2.2 0 .5 0 .5.2.2.5.5 1.5 1.2 2 .2 0 .2.2.3.2.2 0 .3-.2.5-.2.2-.2.2-.6-.2-.8s-.6-.9-.6-1.2c.2-.3.6-.6.9-.6.6 0 1.1.6 1.1 1.1l.5 7.4z"/></svg><svg viewBox="0 0 30 30" width="30" height="30" id="compass" x="30" y="30" xmlns="http://www.w3.org/2000/svg"><path d="M15-.1C6.8-.1.1 6.6.1 14.9s6.7 15 14.9 15 14.9-6.7 14.9-15S23.2-.1 15-.1zM15 29C7.4 29 1 22.7 1 14.9S7.2.8 15 .8s14 6.3 14 14.1S22.8 29 15 29z"/><path d="M15 2.5C8.2 2.5 2.7 8 2.7 14.9S8.2 27.3 15 27.3s12.3-5.5 12.3-12.4S21.9 2.5 15 2.5zm0 23.9c-6.2 0-11.4-5.2-11.4-11.5S8.8 3.4 15 3.4s11.4 5.2 11.4 11.5S21.3 26.4 15 26.4z"/><path d="M15.6 4.8v1.4l-1.1-1.4h-.4v1.9h.4V5.3l1.1 1.4h.3V4.8zM15.6 24.1c-.1-.1-.1-.1-.4-.1-.2 0-.3-.2-.5-.2s-.2-.2-.2-.2c0-.2 0-.2.2-.2s.2-.2.2-.2h.3c.2 0 .2.2.2.2l.2-.2c-.2-.2-.2-.2-.3-.2-.2 0-.2-.2-.5-.2-.2 0-.3 0-.6.2-.2.2-.2.2-.2.5 0 .2.2.3.2.5.2 0 .2.2.2.2.2 0 .2.2.3.2.2 0 .2.2.3.2.2 0 .2.2.2.2s0 .2-.2.2-.2.2-.2.2c-.2 0-.5-.2-.6-.2h-.3c.2.2.5.3.9.3.2 0 .5-.2.5-.2.2-.2.2-.2.2-.5 0-.2.3-.3.1-.5zM24.1 15.5v-.4h1v-.3h-1v-.5h1.1V14h-1.4v1.9h1.4v-.4zM7.4 14l-.5 1.4-.4-1.4h-.3l-.5 1.4-.4-1.4H5l.6 1.9h.3l.4-1.3.5 1.3h.3l.7-1.9zM22 7.9c-.2-.2-.5-.2-.6-.2L13 12.5c-.2 0-.2.2-.2.2l-4.7 8.4c-.1.1-.1.4.2.6.2.2.2.2.3.2.2 0 .2 0 .2-.2l8.4-4.7c.2 0 .2-.2.2-.2L22 8.3v-.4zm-5.6 8.4l-6.5 3.8 3.8-6.6 6.5-3.8-3.8 6.6z"/><path d="M15 12.9c-1.1 0-2 .9-2 2s.9 2 2 2 2-.9 2-2c0-1-.9-2-2-2zm0 3.1c-.6 0-1.1-.6-1.1-1.1 0-.6.6-1.1 1.1-1.1.6 0 1.1.6 1.1 1.1 0 .6-.5 1.1-1.1 1.1z"/></svg><svg viewBox="0 0 30 30" width="30" height="30" id="graduation" x="60" y="30" xmlns="http://www.w3.org/2000/svg"><path d="M14.9 5.5c-1.1 0-1.9 1-1.9 2.2s.9 2.2 1.9 2.2c1.1 0 1.9-1 1.9-2.2s-.8-2.2-1.9-2.2zm0 3c-.5 0-.9-.2-.9-.7 0-.3.3-.8.9-.8s.9.2.9.7c.1.3-.2.8-.9.8z"/><path d="M29.6 6.5L15.3 0h-.5L.4 6.5c-.3.3-.5.7-.5 1.2s.2 1 .5 1.2l14.4 6.5h.4l14.4-6.5c.3-.2.6-.7.6-1.2s-.2-.9-.6-1.2zM14.9 14L1.2 8 15 1.9 28.7 8l-13.8 6z"/><path d="M13.6 7.5l-5.3 3.2c-.2.2-.3.2-.3.7V17h.9v-5.1l5-2.9-.3-1.5z"/><path d="M10.9 29.1l-.9-8.3c.2-.5.5-1.2.5-1.9 0-1.7-.9-2.9-1.9-2.9-1.1 0-1.9 1.5-1.9 2.9 0 .7.2 1.5.5 1.9L6.3 29c0 .2 0 .5.2.7.1.3.1.3.2.3h3.9c.2 0 .3-.2.3-.2v-.7zm-3.8-.8l.9-7.5c0-.2 0-.5-.2-.7-.2-.2-.3-.7-.3-1 0-1 .5-1.5.9-1.5.5 0 .9.7.9 1.5 0 .2-.2.7-.3 1-.2.2-.2.2-.2.7l.9 7.5H7.1z"/><path d="M24.7 16.5c-.2-1.9-.6-3.9-1.2-5.8-.2-.2-.3-.5-.6-.2l-8 3.5L7 10.4c-.2-.2-.5 0-.5.2-.6 1.9-1.1 3.6-1.2 5.8-.2 1.5.5 2.7 1.2 3.4l.5.2.3-1.5-.5-.2c-.5-.2-.8-1-.6-1.9.2-1.7.5-3.2.9-4.9l7.6 3.4h.5l7.6-3.4c.6 1.5.9 3.2.9 4.9.2.7-.2 1.5-.6 1.9-2.9 1.9-5.6 3.4-7.9 4.1h-.5c-1.5-.5-3.1-1.2-5.1-2.4l-.3 1.5c2 1.2 3.9 1.9 5.3 2.4h.6c2.5-.7 5.3-1.9 8.2-4.4.8-.1 1.4-1.6 1.3-3z"/></svg><svg viewBox="0 0 90 30" width="90" height="30" id="hamedlogo" xmlns="http://www.w3.org/2000/svg"><path d="M17.5 12h-.8L18 7.9c.2-.5.2-.9.2-1.1 0-.3-.1-.5-.3-.7-.2-.2-.4-.3-.7-.3-.6 0-1 .4-1.3 1.2l-.1.4-1.5 4.6h-2.6l1.4-4.2c.2-.4.2-.8.2-1.1 0-.3-.1-.5-.3-.7-.2-.2-.4-.3-.7-.3-.6 0-1 .4-1.3 1.1l-.1.3-1.6 4.6H7.7c-.9 0-1.8.2-2.7.5-.9.3-1.7.8-2.4 1.3-.8.7-1.4 1.5-1.9 2.4-.4.9-.7 1.9-.7 2.9 0 1.3.4 2.4 1.1 3.2.8.8 1.7 1.3 2.9 1.3 2.2 0 3.9-1.6 5-4.8l1.6-4.6h2.6l-.7 2-.1.4c-.1.4-.2.7-.2 1 0 .5.2.9.5 1.2.3.3.7.5 1.3.5h1.7c.5 0 .9-.2 1.1-.4s.4-.4.4-.8c0-.6-.3-.8-.9-.8H14.7l.9-3h1.1c.5 0 .8-.1 1.1-.3.3-.2.4-.4.4-.9.2-.6-.1-.8-.7-.8zM7.3 17.6c-.8 2.2-1.7 3.3-2.9 3.3-.5 0-1-.2-1.3-.7s-.5-1-.5-1.7c0-.6.1-1.1.4-1.7.3-.6.7-1.1 1.2-1.6 1-.9 2.3-1.3 3.9-1.3h.4l-1.2 3.7zM25.3 17h-.9l1.2-3.5.1-.3c.1-.2.1-.5.1-.7 0-.3-.1-.5-.2-.7-.2-.2-.4-.3-.6-.3-.4 0-.8.2-1.1.7-.3-.6-.8-.9-1.6-.9-.9 0-1.8.5-2.5 1.5s-1.1 2.1-1.1 3.3c0 .8.2 1.5.6 2 .4.5.9.8 1.5.8h.9c.4 0 .8-.2 1.2-.6.2.4.5.6 1 .6H25c.4 0 .8-.1 1-.4.2-.2.4-.5.4-.9-.1-.4-.4-.6-1.1-.6zm-2.2-2.4l-.6 1.7c-.2.4-.5.7-.9.7h-.2c-.5 0-.7-.4-.7-1s.2-1.2.6-1.7.8-.8 1.2-.8c.2 0 .4.1.5.2.1.1.2.3.2.4 0 .1-.1.3-.1.5zM37.6 17h-1l.9-2.6c.1-.3.2-.7.2-1 0-.5-.2-1-.5-1.3-.4-.4-.8-.5-1.3-.5-.8 0-1.5.4-2.1 1.1-.4-.7-.9-1.1-1.7-1.1-.3 0-.6.1-.9.2-.2.1-.5.4-.9.7-.1-.5-.4-.8-.9-.8s-.8.3-1 1l-1.7 4.7-.1.3c-.1.2-.1.5-.1.7 0 .2.1.4.2.6.2.2.4.3.6.3.6 0 1-.4 1.3-1.3l1-2.8c.3-1 .8-1.5 1.4-1.5.1 0 .3.1.4.2.1.1.2.2.2.4 0 .1 0 .3-.1.6l-.9 2.7-.1.3c-.1.2-.1.5-.1.7 0 .2.1.4.2.6.2.2.4.3.6.3.6 0 1-.4 1.3-1.3l.9-2.6c.2-.5.4-.9.7-1.2.3-.3.6-.4.8-.4.4 0 .5.2.5.6 0 .1 0 .2-.1.4l-.8 2.2c-.1.4-.2.8-.2 1 0 .4.1.7.3.9s.5.4.9.4h1.7c.4 0 .8-.1 1-.4.2-.2.4-.5.4-.8.1-1.1-.3-1.3-1-1.3zM44.4 17h-2.5c-.6 0-.9 0-.9-1h1.7c.7 0 1.2-.1 1.5-.3.6-.4.9-1 .9-1.9 0-.7-.2-1.3-.7-1.7-.4-.4-1-.6-1.7-.6-1 0-1.9.5-2.6 1.3-.7.9-1.1 2-1.1 3.2 0 1 .2 1.7.7 2.2.5.5 1.1.8 2 .8H44c.4 0 .8-.1 1-.4.2-.2.4-.5.4-.8 0-.6-.3-.8-1-.8zm-1.8-3.6c.4 0 .6.2.6.5s-.3.5-.9.5h-.9c.3-.7.7-1 1.2-1zM69 8.7c0-1-.3-1.6-.8-2.1-.5-.4-1.3-.6-2.3-.6h-3.2c-.5 0-.9 0-1.1.3s-.4.5-.4.9c0 .6.4.8 1.1.8h.9l-2.9 8.2c-.6 1.7-1.1 2.9-1.6 3.5-.5.7-1.1 1-1.8 1-.5 0-1-.2-1.3-.6-.3-.4-.5-1-.5-1.7s.2-1.4.5-2c.3-.6.8-1.1 1.3-1.5.7-.5 1.6-.8 2.7-.9.5-.1.8-.1 1-.3.3-.2.4-.5.4-.9s-.1-.7-.4-.9-.6-.3-1.1-.3c-.9 0-1.8.2-2.7.7s-1.7 1-2.3 1.8c-.7.9-1.2 2-1.5 3-.1-.1-.3-.1-.6-.1h-.9l3.3-9.4.1-.3c.1-.2.1-.5.1-.7 0-.3-.1-.5-.2-.7s-.4-.3-.6-.3c-.6 0-1 .4-1.3 1.3L51 12.1c-.4-.6-.9-.8-1.6-.8-.9 0-1.7.5-2.5 1.5-.7 1-1.1 2.1-1.1 3.3 0 .8.2 1.5.6 2 .4.5.9.8 1.5.8H49c.4 0 .8-.2 1.1-.6.2.4.5.6.9.6h1c.3 0 .6-.1.8-.3v.1c0 1.3.4 2.4 1.1 3.3.7.8 1.7 1.3 2.8 1.3 1.1 0 2.1-.4 2.9-1.1.6-.5 1-1.1 1.4-1.9.4-.7.9-2.3 1.6-4.2L64 12h1.1c1.2 0 2.1-.1 2.6-.6.9-.8 1.3-1.5 1.3-2.7zm-18.9 5.9l-.6 1.8c-.1.4-.4.6-.8.6h-.3c-.5 0-.7-.3-.7-.9 0-.6.2-1.3.6-1.8s.8-.8 1.2-.8c.2 0 .4.1.5.2s.2.3.2.5c0 0 0 .2-.1.4zm15.4-4.5h-.7l.7-2h.6c.5 0 .8.2.8.7-.1.9-.5 1.3-1.4 1.3zM71.5 11.5c-1 0-1.9.4-2.7 1.3-.8.9-1.1 1.9-1.1 3.2 0 1.1.4 2 1.1 2.6.3.2.9.4 1.8.4.6 0 1 0 1.3-.1.3-.1.6-.3.9-.5a5 5 0 0 0 1.1-1.6c.3-.7.4-1.4.4-2 0-.9-.3-1.7-.8-2.2-.6-.8-1.2-1.1-2-1.1zm.2 4.9c-.2.3-.6.5-1 .5-.7 0-1.1-.4-1.1-1.1 0-.6.2-1.1.5-1.5s.7-.7 1.1-.7c.3 0 .5.1.7.3.2.2.3.5.3.9.1.6-.1 1.1-.5 1.6zM81.5 17h-1l1.2-3.5c.1-.4.2-.8.2-1 0-.2-.1-.5-.2-.7-.2-.2-.4-.3-.6-.3-.6 0-1 .4-1.3 1.3l-1 2.9c-.2.6-.7 1-1.4 1-.3 0-.5-.1-.5-.4 0-.1 0-.2.1-.4l.1-.3.9-2.5V13c.1-.2.1-.5.1-.7 0-.3-.1-.5-.3-.6s-.4-.3-.6-.3c-.5 0-1 .4-1.3 1.3l-1 3.3c-.1.4-.2.8-.2 1.1 0 .5.2 1 .5 1.4.3.4.7.6 1.2.6h1.2c.5 0 .8-.2 1.1-.6.2.4.5.6.9.6h1.5c.4 0 .8-.1 1-.4.2-.2.4-.5.4-.9 0-.3-.1-.4-.2-.6-.2-.2-.4-.2-.8-.2zM88.4 17h-1c-.5 0-.8-.3-.8-.9s.4-1.3 1.3-2.3l.1-.1c.9 0 1.4-.2 1.4-1 0-.6-.4-.7-1.1-.7h-1.9c-.3 0-.4-.2-.5-.3-.1 0-.1-.2-.1-.4l-.2-.3c-.1-.4-.3-.7-.8-.7-.4 0-.7.3-1 1l-.9 2.7c-.1.4-.2.6-.2.7 0 .3.1.5.3.6s.4.3.6.3c.4 0 .7-.2 1-.9l.3-.7h.9c-.5 0-.8 1-1 1.4s-.3.8-.3 1.2c0 .7.2 1.3.5 1.7s.8.7 1.4.7H88c.4 0 .8-.1 1-.4.2-.2.4-.5.4-.9 0-.5-.3-.7-1-.7z"/></svg><svg viewBox="0 0 30 30" width="30" height="30" id="pen" y="60" xmlns="http://www.w3.org/2000/svg"><path d="M29.9 12.3L17.7.2c-.2-.2-.2-.2-.3-.2-.2 0-.2.2-.3.2L9 10.8c-.2.2-.2.5 0 .6l9.5 9.5c.2.2.2.2.3.2.2 0 .2 0 .3-.2l10.6-8.1c.2-.2.2-.2.2-.3.2 0 .2 0 0-.2zm-10.8 7.6l-9.1-9 7.4-9.8 11.4 11.2-9.7 7.6z"/><path d="M26.2 11.8l-7.1 5.4-6.6-6.6-.6.6 6.9 6.9c.2.2.2.2.3.2.2 0 .2 0 .3-.2l7.4-5.5-.6-.8zM17.7 18.6l-6.3-6.3c-.2-.2-.3-.2-.5-.2l-7.8 4c-.1.2-.1.2-.1.3l-2.8 13c0 .2 0 .3.2.5.1.1.1.1.3.1h.2L14 27.2c.2 0 .2-.2.3-.2l4-7.8c-.4-.3-.6-.5-.6-.6zm-4.6 7.8l-12 2.8 2.8-11.9 7.4-3.7 5.8 5.8-4 7z"/><path d="M8.8 19c-1.2 0-2 .9-2 2 0 1.2.9 2 2 2s2-.9 2-2c.2-1.1-.7-2-2-2zm0 3.2c-.6 0-1.2-.6-1.2-1.2s.5-1.2 1.2-1.2c.8 0 1.2.6 1.2 1.2s-.6 1.2-1.2 1.2z"/><path d="M0 29.3l7.4-7.4.7.7-7.4 7.3z"/></svg></svg>