<?xml version="1.0" encoding="utf-8"?>
<!-- Generator: Adobe Illustrator 18.0.0, SVG Export Plug-In . SVG Version: 6.00 Build 0)  -->
<!DOCTYPE svg PUBLIC "-//W3C//DTD SVG 1.1//EN" "http://www.w3.org/Graphics/SVG/1.1/DTD/svg11.dtd">
<svg version="1.1" id="Layer_1" xmlns="http://www.w3.org/2000/svg" xmlns:xlink="http://www.w3.org/1999/xlink" x="0px" y="0px"
	 viewBox="0 0 30 30" enable-background="new 0 0 30 30" xml:space="preserve">
<g>
	<g>
		<path d="M30,16.9c0-0.8-0.2-1.4-0.6-2c0.5-0.6,0.6-1.4,0.6-2.1c0-1.4-0.8-2.7-1.8-3.5c0.2-0.3,0.2-0.8,0.2-1.1
			c0-1.5-1.1-2.7-2.6-3c-0.2-1.5-1.2-2.7-2.7-2.9c-0.5-0.9-1.5-1.7-2.6-1.7c-0.3,0-0.6,0-0.9,0.2c-0.5-0.6-1.1-0.9-1.7-0.9
			c-1.2,0-2.3,0.9-2.3,2.1v7.7c0,0.9,0.5,1.8,1.2,2.4c-0.8,0.6-1.2,1.5-1.2,2.6v4.7c0,0.6,0.2,1.2,0.5,1.7c-0.3,0.6-0.5,1.1-0.5,1.7
			v3.6c0,1.7,1.4,3,3.1,3c1.2,0,2.1-0.5,2.7-1.5c0.5,0.2,0.9,0.2,1.2,0.2c1.7,0,3.1-1.4,3.1-3c1.7-0.6,3.1-2,3.1-3.8
			c0-0.6-0.2-1.2-0.5-1.8C29.4,19.3,30,18.1,30,16.9z M27.7,19c-0.8-1.2-2.3-1.7-3.1-1.7c-0.2-0.6-0.6-1.2-1.1-1.7
			c-0.2-0.2-0.6-0.2-0.8,0.2c-0.2,0.2-0.2,0.5,0.2,0.6c0.5,0.5,0.8,0.9,0.8,1.5c0,1.1-0.9,2-2,2c-1.1,0-2-0.9-2-2
			c0-0.5,0.2-0.9,0.5-1.2l0,0c0.2,0,0.3-0.2,0.5-0.2c1.2-0.5,1.7-1.7,1.2-2.9c-0.2-0.3-0.5-0.5-0.8-0.3c-0.3,0.2-0.5,0.5-0.3,0.8
			c0.2,0.5-0.2,1.2-0.6,1.5c-0.6,0.2-1.2-0.2-1.5-0.6c-0.2-0.3-0.5-0.5-0.8-0.3c-0.3,0.2-0.5,0.5-0.3,0.8c0.2,0.6,0.6,1.1,1.2,1.2
			c-0.2,0.5-0.5,0.9-0.5,1.5c0,1.7,1.4,3,3.1,3c1.5,0,2.9-1.2,3.1-2.7c0.6,0.2,2,0.3,2.3,1.4c0,0,0,0.2,0.2,0.2l0,0
			c0.3,0.5,0.6,1.1,0.6,1.7c0,1.2-0.8,2.3-2,2.7c-0.2-1.1-0.9-1.7-0.9-1.8c-0.2-0.2-0.6-0.2-0.8,0c-0.2,0.2-0.2,0.5,0,0.8
			c0,0,0.8,0.8,0.6,1.7c0,0,0,0,0,0.2c0,0,0,0,0,0.2c0,0.2,0,0.2,0,0.3c0,1.1-0.9,2-2,2c-0.3,0-0.6-0.2-0.8-0.2
			c0.2-0.6,0.3-1.7-0.5-2.7c0.3-0.6,0.3-1.4-0.2-2c-0.2-0.2-0.5-0.3-0.8-0.2c-0.2,0.2-0.3,0.6-0.2,0.8c0.2,0.3,0.2,0.8-0.2,0.9
			s-0.8,0.2-0.9-0.2C19,24,18.6,23.9,18.4,24c-0.2,0.2-0.3,0.5-0.2,0.8c0.3,0.6,0.9,0.8,1.5,0.8c0.2,0,0.6,0,0.8-0.2
			c0.6,0.9,0.2,1.7,0.2,1.8c0,0,0,0.2-0.2,0.2l0,0c-0.3,0.9-1.1,1.4-2,1.4c-1.1,0-2-0.9-2-2v-3.6c0-0.2,0.2-0.6,0.2-0.8
			c0.6,0.3,1.2,0.6,2.3,0.6h0.2c0.3,0,0.5-0.2,0.5-0.6c0-0.3-0.2-0.5-0.5-0.5l0,0H19c-1.2,0-2-0.6-2.1-0.8c-0.3-0.5-0.5-0.9-0.5-1.2
			v-4.7c0-0.9,0.5-1.7,1.2-2.1l0,0l0,0c0.2-0.2,1.2-0.8,2.3,0.2c0.2,0.2,0.2,0.2,0.3,0.2s0.3-0.2,0.5-0.2c0.2-0.2,0.2-0.6-0.2-0.8
			c-1.2-1.1-2.7-0.9-3.4-0.5c-0.6-0.5-0.9-1.1-0.9-1.8v-8c0-0.6,0.6-1.1,1.1-1.1c0.5,0,0.8,0.2,0.9,0.6c-0.2,0.5-0.3,1.1-0.6,1.2
			c-0.2,0.2-0.3,0.5-0.2,0.8c0.2,0.2,0.3,0.2,0.5,0.2c0.2,0,0.2,0,0.3-0.2c0.8-0.5,1.1-1.4,1.2-2c0.2-0.2,0.3-0.2,0.6-0.2
			c0.8,0,1.4,0.5,1.5,1.2c0,0.3,0,1.5-0.8,2.3c-0.2,0.3-0.6,0.5-0.9,0.6c-0.2-0.6-0.6-1.1-1.2-1.2c-0.3-0.2-0.6,0-0.8,0.3
			c-0.2,0.3,0,0.6,0.3,0.6c0.3,0.2,0.6,0.5,0.5,0.8c-0.2,0.3-0.6,0.6-0.9,0.5c-0.3-0.2-0.6,0-0.8,0.3c-0.2,0.3,0,0.6,0.3,0.6
			c0.2,0.2,0.5,0.2,0.6,0.2c0.6,0,1.2-0.3,1.5-0.9c0.9-0.2,1.5-0.5,2-0.9c0.8-0.8,0.9-1.8,0.9-2.4c0.9,0.2,1.5,0.9,1.5,2
			c0,0.2,0,0.2,0,0.3v0.2c0,0.3-0.2,0.9-0.5,1.1c-0.2,0.2-0.3,0.6-0.2,0.8c0.2,0.2,0.3,0.2,0.5,0.2c0.2,0,0.2,0,0.3-0.2
			c0.6-0.3,0.8-0.9,0.9-1.5c0.9,0.2,1.5,0.9,1.5,2c0,0.2,0,0.3-0.2,0.6c-0.9-0.5-2.4-0.6-4.1,0.5c-0.5-0.3-1.1-0.5-1.7-0.5
			S19.3,9,18.7,9.6c-0.2,0.2-0.2,0.6,0,0.8c0.2,0.2,0.6,0.2,0.8,0c0.2-0.3,0.6-0.5,1.1-0.6c0.5,0,0.8,0.2,1.1,0.3
			c0.6,0.6,0.6,1.5,0.2,2c-0.2,0.2-0.2,0.6,0,0.8c0.2,0.2,0.2,0.2,0.3,0.2c0.2,0,0.3-0.2,0.5-0.2c0.8-0.9,0.9-2.1,0.2-3
			c1.8-1.1,3.2,0,3.2,0l0,0l0,0c1.1,0.6,1.7,1.5,1.7,2.7c0,0.5-0.2,0.9-0.2,1.2c-0.5-0.3-0.9-0.5-1.2-0.6c-0.2-0.9-0.9-1.7-1.7-1.8
			c-0.3-0.2-0.6,0.2-0.8,0.3c-0.2,0.3,0.2,0.6,0.3,0.6c0.6,0.2,1.1,0.8,1.1,1.4c0,0.6-0.3,1.1-0.8,1.2c-0.2,0.2-0.3,0.6-0.2,0.8
			c0.2,0.2,0.3,0.2,0.5,0.2s0.2,0,0.3-0.2c0.6-0.3,1.1-0.9,1.2-1.7c0.2,0.2,0.6,0.2,0.9,0.6l0,0l0,0c0.5,0.5,0.6,1.1,0.6,1.7
			C28.9,17.7,28.5,18.4,27.7,19z"/>
	</g>
</g>
<g>
	<g>
		<path d="M14.6,10.1V2.2c0-1.2-0.9-2.1-2.3-2.1c-0.6,0-1.2,0.3-1.7,0.9c-0.3-0.2-0.5-0.2-0.9-0.2c-1.1,0-2.1,0.6-2.6,1.7
			C5.6,2.6,4.4,3.9,4.4,5.4c-1.5,0.2-2.6,1.5-2.6,3c0,0.3,0.2,0.8,0.2,1.1c-1.2,0.8-1.8,2.1-1.8,3.5c0,0.8,0.2,1.5,0.6,2.1
			c-0.5,0.6-0.6,1.2-0.6,2c0,1.2,0.6,2.4,1.7,3c-0.3,0.6-0.5,1.2-0.5,1.8c0,1.8,1.2,3.3,3.1,3.8c0,1.7,1.4,3,3.1,3
			c0.5,0,0.9-0.2,1.2-0.2c0.6,0.9,1.5,1.5,2.7,1.5c1.7,0,3.1-1.4,3.1-3v-3.8c0-0.5-0.2-1.1-0.5-1.5c0.3-0.6,0.5-1.1,0.5-1.7v-5.2
			c0-0.9-0.5-2-1.2-2.6C14.1,11.9,14.6,11,14.6,10.1z M13.4,10.1L13.4,10.1L13.4,10.1c0,0.8-0.5,1.4-0.9,1.8
			c-0.8-0.5-2.1-0.6-3.4,0.5c-0.2,0.2-0.2,0.6-0.2,0.8c0.2,0.2,0.2,0.2,0.5,0.2c0.2,0,0.2,0,0.3-0.2c1.2-0.9,2.3-0.3,2.3-0.2l0,0
			l0,0c0.8,0.5,1.2,1.2,1.2,2.1v4.8c0,0.5-0.2,0.9-0.5,1.2c-0.2,0.2-0.9,0.8-2.1,0.8h-0.2l0,0c-0.3,0-0.6,0.2-0.6,0.6
			s0.2,0.6,0.6,0.6h0.2c1.1,0,2-0.3,2.3-0.6c0.2,0.2,0.2,0.5,0.2,0.8V27c0,1.1-0.9,2-2,2c-0.9,0-1.7-0.6-2-1.4l0,0
			c0,0,0-0.2-0.2-0.2c-0.2-0.2-0.5-0.9,0.2-1.8c0.2,0.2,0.5,0.2,0.8,0.2c0.5,0,1.2-0.2,1.5-0.8c0.2-0.2,0.2-0.6-0.2-0.8
			c-0.2-0.2-0.6-0.2-0.8,0.2c-0.2,0.3-0.6,0.5-0.9,0.2c-0.3-0.2-0.5-0.6-0.2-0.9c0.2-0.2,0.2-0.6-0.2-0.8c-0.2-0.2-0.6-0.2-0.8,0.2
			c-0.5,0.6-0.5,1.4-0.2,2c-0.8,1.1-0.8,2-0.5,2.7C7.7,28,7.4,28,7.1,28c-1.1,0-2-0.9-2-2c0-0.2,0-0.2,0-0.3c0,0,0,0,0-0.2
			c0,0,0,0,0-0.2c0-1.4,0.8-2.1,0.8-2.1c0.2-0.2,0.2-0.6,0-0.8c-0.2-0.2-0.6-0.2-0.8,0c0,0-0.8,0.8-0.9,1.8c-1.2-0.5-2-1.5-2-2.7
			c0-0.6,0.2-1.2,0.6-1.7l0,0L3,19.8c0.3-1.1,1.7-1.4,2.3-1.4c0.2,1.5,1.5,2.7,3.1,2.7c1.7,0,3.1-1.4,3.1-3c0-0.5-0.2-1.1-0.5-1.5
			c0.6-0.2,0.9-0.6,1.2-1.2c0.2-0.3,0-0.6-0.3-0.8c-0.3-0.2-0.6,0-0.8,0.3c-0.2,0.6-0.9,0.9-1.5,0.6c-0.6-0.2-0.9-0.9-0.6-1.5
			c0.2-0.3,0-0.6-0.3-0.8c-0.3-0.2-0.6,0-0.8,0.3C7.4,14.8,8,16,9.1,16.4c0.2,0.2,0.3,0.2,0.5,0.2l0,0c0.3,0.3,0.6,0.9,0.6,1.2
			c0,1.1-0.9,2-2,2s-2-0.9-2-2c0-0.6,0.3-1.2,0.8-1.5c0.2-0.2,0.3-0.6,0.2-0.8c-0.2-0.2-0.6-0.2-0.8-0.2c-0.6,0.5-0.9,1.1-1.1,1.7
			c-0.8,0-2.3,0.3-3.1,1.5c-0.6-0.5-1.1-1.2-1.1-2.1c0-0.6,0.2-1.2,0.6-1.5l0,0l0,0c0.2-0.5,0.5-0.6,0.9-0.6
			c0.2,0.6,0.6,1.2,1.2,1.7C4,16,4,16.1,4.2,16.1c0.2,0,0.3-0.2,0.5-0.2c0.2-0.2,0.2-0.6-0.2-0.8C4,14.9,3.7,14.5,3.7,14
			c0-0.6,0.5-1.2,1.1-1.4c0.3-0.2,0.5-0.5,0.3-0.6c-0.2-0.3-0.5-0.5-0.8-0.3c-0.9,0.3-1.5,0.9-1.7,1.8c-0.3,0-0.8,0.2-1.2,0.6
			c-0.2-0.5-0.2-0.8-0.2-1.2c0-1.2,0.6-2.3,1.7-2.7l0,0l0,0c0.2,0,1.5-1.1,3.2,0c-0.5,0.9-0.5,2.1,0.2,3c0.2,0.2,0.2,0.2,0.5,0.2
			c0.2,0,0.2,0,0.3-0.2c0.2-0.2,0.2-0.5,0-0.8c-0.6-0.6-0.5-1.5,0.2-2c0.3-0.2,0.6-0.5,1.1-0.3c0.5,0,0.8,0.2,1.1,0.6
			c0.2,0.2,0.6,0.2,0.8,0c0.2-0.2,0.2-0.6,0-0.8C9.7,9.5,9.1,9.2,8.3,9.2c-0.6,0-1.1,0.2-1.7,0.5C5,8.6,3.6,8.7,2.5,9.2
			c0-0.2-0.2-0.3-0.2-0.6c0-0.9,0.6-1.7,1.5-2C4,7,4.2,7.6,4.8,8.1C5,8.3,5,8.3,5.1,8.3c0.2,0,0.3-0.2,0.5-0.2
			C5.7,8,5.7,7.5,5.4,7.3C5.3,7.2,5,6.6,5,6.3V6.1C5,6,5,6,5,5.8c0-0.9,0.6-1.7,1.7-2c0,0.6,0.2,1.7,0.9,2.4c0.5,0.6,1.2,0.9,2,0.9
			c0.3,0.6,0.9,0.9,1.7,0.9c0.2,0,0.5,0,0.6-0.2c0.3-0.2,0.5-0.5,0.3-0.6C12,7,11.7,6.9,11.4,7c-0.3,0.2-0.8-0.2-0.9-0.5
			c-0.2-0.3,0.2-0.6,0.5-0.8c0.3-0.2,0.5-0.5,0.3-0.6c-0.2-0.3-0.5-0.5-0.8-0.3C9.9,5.1,9.5,5.7,9.2,6.1C8.8,6,8.5,5.8,8.3,5.5
			c-0.6-0.8-0.8-2-0.8-2.3C7.7,2.6,8.5,2,9.2,2c0.2,0,0.5,0,0.5,0.2c0.2,0.5,0.5,1.5,1.2,2c0.2,0,0.2,0.2,0.3,0.2
			c0.2,0,0.3-0.2,0.5-0.2c0.2-0.2,0.2-0.6-0.2-0.8s-0.6-0.9-0.6-1.2c0.2-0.3,0.6-0.6,0.9-0.6c0.6,0,1.1,0.6,1.1,1.1L13.4,10.1
			L13.4,10.1z"/>
	</g>
</g>
</svg>
