<?xml version="1.0" encoding="iso-8859-1"?>
<!-- Generator: Adobe Illustrator 19.0.0, SVG Export Plug-In . SVG Version: 6.00 Build 0)  -->
<svg xmlns="http://www.w3.org/2000/svg" xmlns:xlink="http://www.w3.org/1999/xlink" version="1.1" id="Layer_1" x="0px" y="0px" viewBox="0 0 512 512" style="enable-background:new 0 0 512 512;" xml:space="preserve">
<g>
	<g>
		<path d="M256,0C114.84,0,0,114.84,0,256s114.84,256,256,256s256-114.84,256-256S397.16,0,256,0z M256,496    C123.664,496,16,388.336,16,256S123.664,16,256,16s240,107.664,240,240S388.336,496,256,496z"/>
	</g>
</g>
<g>
	<g>
		<path d="M256,43.784c-117.016,0-212.216,95.2-212.216,212.216S138.984,468.216,256,468.216S468.216,373.016,468.216,256    S373.016,43.784,256,43.784z M256,452.216c-108.192,0-196.216-88.024-196.216-196.216S147.808,59.784,256,59.784    S452.216,147.808,452.216,256S364.192,452.216,256,452.216z"/>
	</g>
</g>
<g>
	<g>
		<polygon points="265.832,81.792 265.832,107.064 246.176,81.792 240.464,81.792 240.464,115.632 246.176,115.632 246.176,90.936     265.344,115.632 271.544,115.632 271.544,81.792   "/>
	</g>
</g>
<g>
	<g>
		<path d="M266.456,413.56c-1.76-1.52-4.376-2.696-7.84-3.536c-3.472-0.84-5.736-1.624-6.8-2.352c-1.064-0.728-1.6-1.776-1.6-3.144    c0-1.376,0.536-2.4,1.6-3.08c1.064-0.68,2.424-1.016,4.088-1.016s3.352,0.288,5.056,0.88c1.712,0.584,3.064,1.328,4.064,2.232    l3.048-4.312c-1.544-1.288-3.384-2.288-5.52-3c-2.128-0.712-4.272-1.064-6.44-1.064c-3.36,0-6.176,0.848-8.448,2.544    c-2.272,1.696-3.408,4.104-3.408,7.24c0,3.128,1,5.448,3,6.968c1,0.808,2.152,1.456,3.44,1.96    c1.288,0.504,3.176,1.048,5.664,1.648c2.48,0.6,4.232,1.256,5.248,1.984c1.016,0.72,1.528,1.736,1.528,3.048    c0,1.304-0.544,2.352-1.624,3.144c-1.08,0.784-2.544,1.184-4.384,1.184c-3.68,0-7.224-1.488-10.648-4.456l-3.584,4.312    c4.104,3.648,8.8,5.472,14.088,5.472c3.616,0,6.536-0.92,8.76-2.76c2.232-1.84,3.344-4.24,3.344-7.192    C269.088,417.312,268.216,415.08,266.456,413.56z"/>
	</g>
</g>
<g>
	<g>
		<polygon points="411.568,267.544 411.568,258.488 427.784,258.488 427.784,253.408 411.568,253.408 411.568,244.456     429.624,244.456 429.624,239.08 405.856,239.08 405.856,272.92 430.208,272.92 430.208,267.544   "/>
	</g>
</g>
<g>
	<g>
		<polygon points="125.216,239.08 116.696,263.432 109.144,239.08 104.016,239.08 96.464,263.432 87.936,239.08 81.784,239.08     93.6,272.92 99.264,272.92 106.384,249.728 106.768,249.728 113.88,272.92 119.544,272.92 131.36,239.08   "/>
	</g>
</g>
<g>
	<g>
		<path d="M374.072,137.928c-2.568-2.576-6.552-3.08-9.696-1.248l-141.872,82.96c-1.184,0.696-2.168,1.68-2.864,2.864    l-82.96,141.872c-1.84,3.144-1.328,7.128,1.248,9.696c1.544,1.536,3.592,2.344,5.664,2.344c1.384,0,2.776-0.36,4.04-1.104    l141.864-82.96c1.184-0.696,2.168-1.68,2.864-2.864l82.96-141.864C377.16,144.48,376.64,140.496,374.072,137.928z M279.6,279.6    l-113.696,66.496l66.488-113.704l113.704-66.488L279.6,279.6z"/>
	</g>
</g>
<g>
	<g>
		<path d="M256,221.44c-19.056,0-34.56,15.504-34.56,34.56c0,19.056,15.504,34.56,34.56,34.56c19.056,0,34.56-15.504,34.56-34.56    C290.56,236.944,275.056,221.44,256,221.44z M256,274.56c-10.232,0-18.56-8.328-18.56-18.56s8.328-18.56,18.56-18.56    s18.56,8.328,18.56,18.56S266.232,274.56,256,274.56z"/>
	</g>
</g>
<g>
</g>
<g>
</g>
<g>
</g>
<g>
</g>
<g>
</g>
<g>
</g>
<g>
</g>
<g>
</g>
<g>
</g>
<g>
</g>
<g>
</g>
<g>
</g>
<g>
</g>
<g>
</g>
<g>
</g>
</svg>
