<?xml version="1.0" encoding="utf-8"?>
<!-- Generator: Adobe Illustrator 18.0.0, SVG Export Plug-In . SVG Version: 6.00 Build 0)  -->
<!DOCTYPE svg PUBLIC "-//W3C//DTD SVG 1.1//EN" "http://www.w3.org/Graphics/SVG/1.1/DTD/svg11.dtd">
<svg version="1.1" id="Layer_1" xmlns="http://www.w3.org/2000/svg" xmlns:xlink="http://www.w3.org/1999/xlink" x="0px" y="0px"
	 viewBox="0 0 30 30" enable-background="new 0 0 30 30" xml:space="preserve">
<g>
	<g>
		<path d="M15-0.1c-8.2,0-14.9,6.7-14.9,15s6.7,15,14.9,15s14.9-6.7,14.9-15S23.2-0.1,15-0.1z M15,29C7.4,29,1,22.7,1,14.9
			S7.2,0.8,15,0.8s14,6.3,14,14.1S22.8,29,15,29z"/>
	</g>
</g>
<g>
	<g>
		<path d="M15,2.5C8.2,2.5,2.7,8,2.7,14.9S8.2,27.3,15,27.3s12.3-5.5,12.3-12.4S21.9,2.5,15,2.5z M15,26.4
			c-6.2,0-11.4-5.2-11.4-11.5S8.8,3.4,15,3.4s11.4,5.2,11.4,11.5S21.3,26.4,15,26.4z"/>
	</g>
</g>
<g>
	<g>
		<polygon points="15.6,4.8 15.6,6.2 14.5,4.8 14.1,4.8 14.1,6.7 14.5,6.7 14.5,5.3 15.6,6.7 15.9,6.7 15.9,4.8 		"/>
	</g>
</g>
<g>
	<g>
		<path d="M15.6,24.1C15.5,24,15.5,24,15.2,24c-0.2,0-0.3-0.2-0.5-0.2c-0.2,0-0.2-0.2-0.2-0.2c0-0.2,0-0.2,0.2-0.2
			c0.2,0,0.2-0.2,0.2-0.2s0.2,0,0.3,0c0.2,0,0.2,0.2,0.2,0.2l0.2-0.2c-0.2-0.2-0.2-0.2-0.3-0.2c-0.2,0-0.2-0.2-0.5-0.2
			c-0.2,0-0.3,0-0.6,0.2c-0.2,0.2-0.2,0.2-0.2,0.5c0,0.2,0.2,0.3,0.2,0.5c0.2,0,0.2,0.2,0.2,0.2c0.2,0,0.2,0.2,0.3,0.2
			c0.2,0,0.2,0.2,0.3,0.2c0.2,0,0.2,0.2,0.2,0.2s0,0.2-0.2,0.2c-0.2,0-0.2,0.2-0.2,0.2c-0.2,0-0.5-0.2-0.6-0.2L13.9,25
			c0.2,0.2,0.5,0.3,0.9,0.3c0.2,0,0.5-0.2,0.5-0.2c0.2-0.2,0.2-0.2,0.2-0.5C15.5,24.4,15.8,24.3,15.6,24.1z"/>
	</g>
</g>
<g>
	<g>
		<polygon points="24.1,15.5 24.1,15.1 25.1,15.1 25.1,14.8 24.1,14.8 24.1,14.3 25.2,14.3 25.2,14 23.8,14 23.8,15.9 25.2,15.9 
			25.2,15.5 		"/>
	</g>
</g>
<g>
	<g>
		<polygon points="7.4,14 6.9,15.4 6.5,14 6.2,14 5.7,15.4 5.3,14 5,14 5.6,15.9 5.9,15.9 6.3,14.6 6.3,14.6 6.8,15.9 7.1,15.9 
			7.8,14 		"/>
	</g>
</g>
<g>
	<g>
		<path d="M22,7.9c-0.2-0.2-0.5-0.2-0.6-0.2L13,12.5c-0.2,0-0.2,0.2-0.2,0.2l-4.7,8.4C8,21.2,8,21.5,8.3,21.7
			c0.2,0.2,0.2,0.2,0.3,0.2c0.2,0,0.2,0,0.2-0.2l8.4-4.7c0.2,0,0.2-0.2,0.2-0.2L22,8.3C22,8.3,22,8.2,22,7.9z M16.4,16.3l-6.5,3.8
			l3.8-6.6l6.5-3.8L16.4,16.3z"/>
	</g>
</g>
<g>
	<g>
		<path d="M15,12.9c-1.1,0-2,0.9-2,2c0,1.1,0.9,2,2,2s2-0.9,2-2C17,13.9,16.1,12.9,15,12.9z M15,16c-0.6,0-1.1-0.6-1.1-1.1
			c0-0.6,0.6-1.1,1.1-1.1c0.6,0,1.1,0.6,1.1,1.1C16.1,15.5,15.6,16,15,16z"/>
	</g>
</g>
</svg>
