<?xml version="1.0" encoding="utf-8"?>
<!-- Generator: Adobe Illustrator 18.0.0, SVG Export Plug-In . SVG Version: 6.00 Build 0)  -->
<!DOCTYPE svg PUBLIC "-//W3C//DTD SVG 1.1//EN" "http://www.w3.org/Graphics/SVG/1.1/DTD/svg11.dtd">
<svg version="1.1" id="Layer_1" xmlns="http://www.w3.org/2000/svg" xmlns:xlink="http://www.w3.org/1999/xlink" x="0px" y="0px"
	 viewBox="0 0 48 42" enable-background="new 0 0 48 42" xml:space="preserve">
<path fill="#475993" d="M41.5,0H6.4C2.8,0-0.1,2.5-0.1,5.7v30.7c0,3.1,2.9,5.7,6.5,5.7h17.3l0-15h-4.5c-0.6,0-1.1-0.4-1.1-0.9l0-4.8
	c0-0.5,0.5-0.9,1.1-0.9h4.5v-4.7c0-5.4,3.8-8.4,9.3-8.4h4.5c0.6,0,1.1,0.4,1.1,0.9v4.1c0,0.5-0.5,0.9-1.1,0.9l-2.8,0
	c-3,0-3.6,1.3-3.6,3.1v4h6.6c0.6,0,1.1,0.5,1,1l-0.7,4.8c-0.1,0.5-0.5,0.8-1,0.8h-5.9l0,15h10.3c3.6,0,6.5-2.5,6.5-5.7V5.7
	C48,2.5,45.1,0,41.5,0z"/>
</svg>
