<?xml version="1.0" encoding="utf-8"?>
<!-- Generator: Adobe Illustrator 18.0.0, SVG Export Plug-In . SVG Version: 6.00 Build 0)  -->
<!DOCTYPE svg PUBLIC "-//W3C//DTD SVG 1.1//EN" "http://www.w3.org/Graphics/SVG/1.1/DTD/svg11.dtd">
<svg version="1.1" id="Layer_1" xmlns="http://www.w3.org/2000/svg" xmlns:xlink="http://www.w3.org/1999/xlink" x="0px" y="0px"
	 viewBox="0 0 30 30" enable-background="new 0 0 30 30" xml:space="preserve">
<g>
	<g>
		<path d="M14.9,5.5c-1.1,0-1.9,1-1.9,2.2s0.9,2.2,1.9,2.2c1.1,0,1.9-1,1.9-2.2S16,5.5,14.9,5.5z M14.9,8.5c-0.5,0-0.9-0.2-0.9-0.7
			C14,7.5,14.3,7,14.9,7s0.9,0.2,0.9,0.7C15.9,8,15.6,8.5,14.9,8.5z"/>
	</g>
</g>
<g>
	<g>
		<path d="M29.6,6.5L15.3,0c-0.2,0-0.3,0-0.5,0L0.4,6.5C0.1,6.8-0.1,7.2-0.1,7.7s0.2,1,0.5,1.2l14.4,6.5c0.2,0,0.2,0,0.2,0
			c0.2,0,0.2,0,0.2,0l14.4-6.5c0.3-0.2,0.6-0.7,0.6-1.2S30,6.8,29.6,6.5z M14.9,14L1.2,8l13.8-6.1L28.7,8L14.9,14z"/>
	</g>
</g>
<g>
	<g>
		<path d="M13.6,7.5l-5.3,3.2C8.1,10.9,8,10.9,8,11.4v5.6h0.9v-5.1l5-2.9L13.6,7.5z"/>
	</g>
</g>
<g>
	<g>
		<path d="M10.9,29.1L10,20.8c0.2-0.5,0.5-1.2,0.5-1.9c0-1.7-0.9-2.9-1.9-2.9c-1.1,0-1.9,1.5-1.9,2.9c0,0.7,0.2,1.5,0.5,1.9
			l-0.9,8.2c0,0.2,0,0.5,0.2,0.7C6.6,30,6.6,30,6.7,30h3.9c0.2,0,0.3-0.2,0.3-0.2C10.9,29.6,10.9,29.3,10.9,29.1z M7.1,28.3L8,20.8
			c0-0.2,0-0.5-0.2-0.7c-0.2-0.2-0.3-0.7-0.3-1c0-1,0.5-1.5,0.9-1.5c0.5,0,0.9,0.7,0.9,1.5c0,0.2-0.2,0.7-0.3,1
			c-0.2,0.2-0.2,0.2-0.2,0.7l0.9,7.5H7.1z"/>
	</g>
</g>
<g>
	<g>
		<path d="M24.7,16.5c-0.2-1.9-0.6-3.9-1.2-5.8c-0.2-0.2-0.3-0.5-0.6-0.2L14.9,14l-7.9-3.6c-0.2-0.2-0.5,0-0.5,0.2
			c-0.6,1.9-1.1,3.6-1.2,5.8c-0.2,1.5,0.5,2.7,1.2,3.4l0.5,0.2l0.3-1.5l-0.5-0.2c-0.5-0.2-0.8-1-0.6-1.9c0.2-1.7,0.5-3.2,0.9-4.9
			l7.6,3.4c0.2,0,0.3,0,0.5,0l7.6-3.4c0.6,1.5,0.9,3.2,0.9,4.9c0.2,0.7-0.2,1.5-0.6,1.9c-2.9,1.9-5.6,3.4-7.9,4.1
			c-0.2,0-0.2,0-0.5,0c-1.5-0.5-3.1-1.2-5.1-2.4l-0.3,1.5c2,1.2,3.9,1.9,5.3,2.4c0.2,0,0.2,0,0.3,0s0.2,0,0.3,0
			c2.5-0.7,5.3-1.9,8.2-4.4C24.2,19.4,24.8,17.9,24.7,16.5z"/>
	</g>
</g>
</svg>
