<?xml version="1.0" encoding="utf-8"?>
<!-- Generator: Adobe Illustrator 18.0.0, SVG Export Plug-In . SVG Version: 6.00 Build 0)  -->
<!DOCTYPE svg PUBLIC "-//W3C//DTD SVG 1.1//EN" "http://www.w3.org/Graphics/SVG/1.1/DTD/svg11.dtd">
<svg version="1.1" id="Layer_1" xmlns="http://www.w3.org/2000/svg" xmlns:xlink="http://www.w3.org/1999/xlink" x="0px" y="0px"
	 viewBox="0 0 50 50" enable-background="new 0 0 50 50" xml:space="preserve">
<path fill="#FFFFFF" stroke="#000000" stroke-miterlimit="10" d="M5.3,9.3C26.1-4.4,16,54.9,2.6,38.1c11.9,5.1,11.3-10.5,12-17.2
	c0.2-2.5,1.5-8.4-0.9-10.5c-4-3.5-4.1,2-9.5-0.9l0.4,0.1C4.8,9.5,5.1,9.4,5.3,9.3z"/>
<path fill="#FFFFFF" stroke="#000000" stroke-miterlimit="10" d="M33.1,2c-0.4,0.1-0.8,0.3-1.1,0.7c-7.6,7.8-7.1,14.1-8.1,25.1
	c-0.5,5.6-0.4,24.2,10.6,14.4c-11.4,2.9-8.8-10.8-8.3-17.4c0.9-11.7,1.3-15.1,9.6-23.5L33.1,2z"/>
<path fill="#FFFFFF" stroke="#000000" stroke-miterlimit="10" d="M8.6,25.1c8.4-3,16.9-5.9,25.3-8.9c-4.1,7.3-22.1,10.5-29.8,13.5
	C5.6,28.2,7,26.5,8.6,25.1z"/>
<path fill="#FFFFFF" stroke="#000000" stroke-miterlimit="10" d="M38.5,14V7c0,0,6.4-0.6,5.2,1.5s-4.6,1.7-4.6,1.7"/>
<path fill="#FFFFFF" stroke="#000000" stroke-miterlimit="10" d="M39.6,16.4l-0.3,0.2c-0.5,0.4-0.8,0.9-0.9,1.5l0,0.2
	c-0.1,0.8,0.3,1.9,0.9,2.5l0.2,0.2c0.3,0.3,0.8,0.5,1.2,0.4l0.5,0c0.8,0,1.6-0.5,2-1.2l0.1-0.2c0.2-0.4,0.3-0.8,0.3-1.2l0-0.5
	c0-0.9-0.5-1.7-1.4-2.1l-0.2-0.1C41.1,15.8,40.2,15.9,39.6,16.4z"/>
<path fill="#FFFFFF" stroke="#000000" stroke-miterlimit="10" d="M38.7,23.7l-0.1,4.3c0,0.7,0.6,1.3,1.3,1.2l2.5-0.1
	c0.8,0,1.4-0.7,1.5-1.5l-0.6-2.8"/>
<path fill="#FFFFFF" stroke="#000000" stroke-miterlimit="10" d="M38.6,38.4c0-0.7-0.5-4.7,0.1-4.8c0.6-0.1,5.1-1.2,5.3-0.5
	c0.2,0.7-4.2,2.4-5,2.8c1.6,0.8,3.2,1.6,4.8,2.4"/>
</svg>
