<?xml version="1.0" encoding="utf-8"?>
<!-- Generator: Adobe Illustrator 18.0.0, SVG Export Plug-In . SVG Version: 6.00 Build 0)  -->
<!DOCTYPE svg PUBLIC "-//W3C//DTD SVG 1.1//EN" "http://www.w3.org/Graphics/SVG/1.1/DTD/svg11.dtd">
<svg version="1.1" id="Layer_1" xmlns="http://www.w3.org/2000/svg" xmlns:xlink="http://www.w3.org/1999/xlink" x="0px" y="0px"
	 viewBox="0 0 90 30" enable-background="new 0 0 90 30" xml:space="preserve">
<g>
	<path d="M17.5,12h-0.2h-0.6L18,7.9c0.2-0.5,0.2-0.9,0.2-1.1c0-0.3-0.1-0.5-0.3-0.7c-0.2-0.2-0.4-0.3-0.7-0.3c-0.6,0-1,0.4-1.3,1.2
		l-0.1,0.4L14.3,12h-2.6l1.4-4.2c0.2-0.4,0.2-0.8,0.2-1.1c0-0.3-0.1-0.5-0.3-0.7c-0.2-0.2-0.4-0.3-0.7-0.3c-0.6,0-1,0.4-1.3,1.1
		l-0.1,0.3l-1.6,4.6l-0.4,0l-1.2,0c-0.9,0-1.8,0.2-2.7,0.5c-0.9,0.3-1.7,0.8-2.4,1.3c-0.8,0.7-1.4,1.5-1.9,2.4
		c-0.4,0.9-0.7,1.9-0.7,2.9c0,1.3,0.4,2.4,1.1,3.2c0.8,0.8,1.7,1.3,2.9,1.3c2.2,0,3.9-1.6,5-4.8l1.6-4.6h2.6l-0.7,2l-0.1,0.4
		c-0.1,0.4-0.2,0.7-0.2,1c0,0.5,0.2,0.9,0.5,1.2c0.3,0.3,0.7,0.5,1.3,0.5h1.7c0.5,0,0.9-0.2,1.1-0.4s0.4-0.4,0.4-0.8
		c0-0.6-0.3-0.8-0.9-0.8h-0.2h-1.4l0.9-3h1.1c0.5,0,0.8-0.1,1.1-0.3c0.3-0.2,0.4-0.4,0.4-0.9C18.4,12.2,18.1,12,17.5,12z M7.3,17.6
		c-0.8,2.2-1.7,3.3-2.9,3.3c-0.5,0-1-0.2-1.3-0.7s-0.5-1-0.5-1.7c0-0.6,0.1-1.1,0.4-1.7c0.3-0.6,0.7-1.1,1.2-1.6
		c1-0.9,2.3-1.3,3.9-1.3h0.4L7.3,17.6z"/>
	<path d="M25.3,17h-0.9l1.2-3.5l0.1-0.3c0.1-0.2,0.1-0.5,0.1-0.7c0-0.3-0.1-0.5-0.2-0.7c-0.2-0.2-0.4-0.3-0.6-0.3
		c-0.4,0-0.8,0.2-1.1,0.7c-0.3-0.6-0.8-0.9-1.6-0.9c-0.9,0-1.8,0.5-2.5,1.5c-0.7,1-1.1,2.1-1.1,3.3c0,0.8,0.2,1.5,0.6,2
		c0.4,0.5,0.9,0.8,1.5,0.8h0.9c0.4,0,0.8-0.2,1.2-0.6c0.2,0.4,0.5,0.6,1,0.6h1.1c0.4,0,0.8-0.1,1-0.4c0.2-0.2,0.4-0.5,0.4-0.9
		C26.3,17.2,26,17,25.3,17z M23.1,14.6l-0.6,1.7C22.3,16.7,22,17,21.6,17h-0.2c-0.5,0-0.7-0.4-0.7-1c0-0.6,0.2-1.2,0.6-1.7
		s0.8-0.8,1.2-0.8c0.2,0,0.4,0.1,0.5,0.2c0.1,0.1,0.2,0.3,0.2,0.4C23.2,14.2,23.1,14.4,23.1,14.6z"/>
	<path d="M37.6,17h-1l0.9-2.6c0.1-0.3,0.2-0.7,0.2-1c0-0.5-0.2-1-0.5-1.3c-0.4-0.4-0.8-0.5-1.3-0.5c-0.8,0-1.5,0.4-2.1,1.1
		c-0.4-0.7-0.9-1.1-1.7-1.1c-0.3,0-0.6,0.1-0.9,0.2c-0.2,0.1-0.5,0.4-0.9,0.7c-0.1-0.5-0.4-0.8-0.9-0.8c-0.5,0-0.8,0.3-1,1l-1.7,4.7
		l-0.1,0.3c-0.1,0.2-0.1,0.5-0.1,0.7c0,0.2,0.1,0.4,0.2,0.6c0.2,0.2,0.4,0.3,0.6,0.3c0.6,0,1-0.4,1.3-1.3l1-2.8
		c0.3-1,0.8-1.5,1.4-1.5c0.1,0,0.3,0.1,0.4,0.2c0.1,0.1,0.2,0.2,0.2,0.4c0,0.1,0,0.3-0.1,0.6l-0.9,2.7l-0.1,0.3
		c-0.1,0.2-0.1,0.5-0.1,0.7c0,0.2,0.1,0.4,0.2,0.6c0.2,0.2,0.4,0.3,0.6,0.3c0.6,0,1-0.4,1.3-1.3l0.9-2.6c0.2-0.5,0.4-0.9,0.7-1.2
		c0.3-0.3,0.6-0.4,0.8-0.4c0.4,0,0.5,0.2,0.5,0.6c0,0.1,0,0.2-0.1,0.4l-0.8,2.2c-0.1,0.4-0.2,0.8-0.2,1c0,0.4,0.1,0.7,0.3,0.9
		s0.5,0.4,0.9,0.4h1.7c0.4,0,0.8-0.1,1-0.4c0.2-0.2,0.4-0.5,0.4-0.8C38.7,17.2,38.3,17,37.6,17z"/>
	<path d="M44.4,17h-2.5c-0.6,0-0.9,0-0.9-1h1.7c0.7,0,1.2-0.1,1.5-0.3c0.6-0.4,0.9-1,0.9-1.9c0-0.7-0.2-1.3-0.7-1.7
		c-0.4-0.4-1-0.6-1.7-0.6c-1,0-1.9,0.5-2.6,1.3c-0.7,0.9-1.1,2-1.1,3.2c0,1,0.2,1.7,0.7,2.2c0.5,0.5,1.1,0.8,2,0.8H44
		c0.4,0,0.8-0.1,1-0.4c0.2-0.2,0.4-0.5,0.4-0.8C45.4,17.2,45.1,17,44.4,17z M42.6,13.4c0.4,0,0.6,0.2,0.6,0.5c0,0.3-0.3,0.5-0.9,0.5
		h-0.9C41.7,13.7,42.1,13.4,42.6,13.4z"/>
	<path d="M69,8.7c0-1-0.3-1.6-0.8-2.1C67.7,6.2,66.9,6,65.9,6h-3.2c-0.5,0-0.9,0-1.1,0.3s-0.4,0.5-0.4,0.9c0,0.6,0.4,0.8,1.1,0.8
		h0.9l-2.9,8.2c-0.6,1.7-1.1,2.9-1.6,3.5c-0.5,0.7-1.1,1-1.8,1c-0.5,0-1-0.2-1.3-0.6c-0.3-0.4-0.5-1-0.5-1.7c0-0.7,0.2-1.4,0.5-2
		c0.3-0.6,0.8-1.1,1.3-1.5c0.7-0.5,1.6-0.8,2.7-0.9c0.5-0.1,0.8-0.1,1-0.3c0.3-0.2,0.4-0.5,0.4-0.9c0-0.4-0.1-0.7-0.4-0.9
		s-0.6-0.3-1.1-0.3c-0.9,0-1.8,0.2-2.7,0.7s-1.7,1-2.3,1.8c-0.7,0.9-1.2,2-1.5,3C52.9,17,52.7,17,52.4,17h-0.9l3.3-9.4l0.1-0.3
		c0.1-0.2,0.1-0.5,0.1-0.7c0-0.3-0.1-0.5-0.2-0.7s-0.4-0.3-0.6-0.3c-0.6,0-1,0.4-1.3,1.3l-1.9,5.2c-0.4-0.6-0.9-0.8-1.6-0.8
		c-0.9,0-1.7,0.5-2.5,1.5c-0.7,1-1.1,2.1-1.1,3.3c0,0.8,0.2,1.5,0.6,2c0.4,0.5,0.9,0.8,1.5,0.8h1.1c0.4,0,0.8-0.2,1.1-0.6
		c0.2,0.4,0.5,0.6,0.9,0.6H52c0.3,0,0.6-0.1,0.8-0.3c0,0,0,0,0,0.1c0,1.3,0.4,2.4,1.1,3.3c0.7,0.8,1.7,1.3,2.8,1.3
		c1.1,0,2.1-0.4,2.9-1.1c0.6-0.5,1-1.1,1.4-1.9c0.4-0.7,0.9-2.3,1.6-4.2L64,12h1.1c1.2,0,2.1-0.1,2.6-0.6C68.6,10.6,69,9.9,69,8.7z
		 M50.1,14.6l-0.6,1.8c-0.1,0.4-0.4,0.6-0.8,0.6h-0.3c-0.5,0-0.7-0.3-0.7-0.9c0-0.6,0.2-1.3,0.6-1.8s0.8-0.8,1.2-0.8
		c0.2,0,0.4,0.1,0.5,0.2s0.2,0.3,0.2,0.5C50.2,14.2,50.2,14.4,50.1,14.6z M65.5,10.1h-0.7l0.7-2h0.6c0.5,0,0.8,0.2,0.8,0.7
		C66.8,9.7,66.4,10.1,65.5,10.1z"/>
	<path d="M71.5,11.5c-1,0-1.9,0.4-2.7,1.3c-0.8,0.9-1.1,1.9-1.1,3.2c0,1.1,0.4,2,1.1,2.6c0.3,0.2,0.9,0.4,1.8,0.4c0.6,0,1,0,1.3-0.1
		c0.3-0.1,0.6-0.3,0.9-0.5c0.4-0.4,0.8-0.9,1.1-1.6c0.3-0.7,0.4-1.4,0.4-2c0-0.9-0.3-1.7-0.8-2.2C72.9,11.8,72.3,11.5,71.5,11.5z
		 M71.7,16.4c-0.2,0.3-0.6,0.5-1,0.5c-0.7,0-1.1-0.4-1.1-1.1c0-0.6,0.2-1.1,0.5-1.5s0.7-0.7,1.1-0.7c0.3,0,0.5,0.1,0.7,0.3
		c0.2,0.2,0.3,0.5,0.3,0.9C72.3,15.4,72.1,15.9,71.7,16.4z"/>
	<path d="M81.5,17h-1l1.2-3.5c0.1-0.4,0.2-0.8,0.2-1c0-0.2-0.1-0.5-0.2-0.7c-0.2-0.2-0.4-0.3-0.6-0.3c-0.6,0-1,0.4-1.3,1.3l-1,2.9
		c-0.2,0.6-0.7,1-1.4,1c-0.3,0-0.5-0.1-0.5-0.4c0-0.1,0-0.2,0.1-0.4l0.1-0.3l0.9-2.5L78,13c0.1-0.2,0.1-0.5,0.1-0.7
		c0-0.3-0.1-0.5-0.3-0.6s-0.4-0.3-0.6-0.3c-0.5,0-1,0.4-1.3,1.3L74.9,16c-0.1,0.4-0.2,0.8-0.2,1.1c0,0.5,0.2,1,0.5,1.4
		c0.3,0.4,0.7,0.6,1.2,0.6h1.2c0.5,0,0.8-0.2,1.1-0.6c0.2,0.4,0.5,0.6,0.9,0.6h1.5c0.4,0,0.8-0.1,1-0.4c0.2-0.2,0.4-0.5,0.4-0.9
		c0-0.3-0.1-0.4-0.2-0.6C82.1,17,81.9,17,81.5,17z"/>
	<path d="M88.4,17h-1c-0.5,0-0.8-0.3-0.8-0.9s0.4-1.3,1.3-2.3l0.1-0.1c0.9,0,1.4-0.2,1.4-1c0-0.6-0.4-0.7-1.1-0.7h-1.9
		c-0.3,0-0.4-0.2-0.5-0.3c-0.1,0-0.1-0.2-0.1-0.4L85.6,11c-0.1-0.4-0.3-0.7-0.8-0.7c-0.4,0-0.7,0.3-1,1l-0.9,2.7
		c-0.1,0.4-0.2,0.6-0.2,0.7c0,0.3,0.1,0.5,0.3,0.6s0.4,0.3,0.6,0.3c0.4,0,0.7-0.2,1-0.9l0.3-0.7h0.9c-0.5,0-0.8,1-1,1.4
		s-0.3,0.8-0.3,1.2c0,0.7,0.2,1.3,0.5,1.7s0.8,0.7,1.4,0.7H88c0.4,0,0.8-0.1,1-0.4c0.2-0.2,0.4-0.5,0.4-0.9
		C89.4,17.2,89.1,17,88.4,17z"/>
</g>
</svg>
