<?xml version="1.0" encoding="utf-8"?>
<!-- Generator: Adobe Illustrator 18.0.0, SVG Export Plug-In . SVG Version: 6.00 Build 0)  -->
<!DOCTYPE svg PUBLIC "-//W3C//DTD SVG 1.1//EN" "http://www.w3.org/Graphics/SVG/1.1/DTD/svg11.dtd">
<svg version="1.1" id="Layer_1" xmlns="http://www.w3.org/2000/svg" xmlns:xlink="http://www.w3.org/1999/xlink" x="0px" y="0px"
	 viewBox="0 0 48 39" enable-background="new 0 0 48 39" xml:space="preserve">
<path fill="#F6E27D" d="M47.1,4.2l-1.3,1l-2.2,1.7L25.3,21.4c-0.4,0.3-0.8,0.5-1.3,0.5s-0.9-0.2-1.3-0.5L4.4,6.9L2.2,5.2l-1.3-1
	C0.3,3.8,0,3.1,0,2.3v34.3C0,37.9,1,39,2.2,39H24h21.8c1.2,0,2.2-1,2.2-2.3V2.3C48,3.1,47.7,3.8,47.1,4.2z"/>
<path fill="#F2D23D" d="M48,2.1C48,2.1,48,2.1,48,2.1C48,2,48,2,48,1.9c0,0,0-0.1,0-0.1c0,0,0-0.1,0-0.1c0,0,0-0.1,0-0.1
	c0,0,0,0,0,0c0,0,0-0.1,0-0.1c0,0,0-0.1,0-0.1c0,0,0-0.1-0.1-0.1c0,0,0,0,0-0.1c0,0,0-0.1-0.1-0.1c0,0,0,0,0-0.1
	c0,0-0.1-0.1-0.1-0.1c0,0,0,0,0-0.1c0,0-0.1-0.1-0.1-0.1c0,0,0,0,0,0c0,0-0.1-0.1-0.1-0.1c0,0,0,0,0,0c0,0-0.1-0.1-0.1-0.1
	c0,0,0,0-0.1,0c0,0-0.1,0-0.1-0.1c0,0,0,0-0.1,0c0,0-0.1,0-0.1-0.1c0,0,0,0-0.1,0c-0.1,0-0.1,0-0.2-0.1c0,0,0,0-0.1,0
	c0,0-0.1,0-0.1,0c0,0-0.1,0-0.1,0c0,0-0.1,0-0.1,0c0,0,0,0-0.1,0c-0.1,0-0.1,0-0.2,0H24H2.2C2.1,0,2,0,2,0c0,0,0,0-0.1,0
	c0,0-0.1,0-0.1,0c0,0-0.1,0-0.1,0c0,0-0.1,0-0.1,0c0,0,0,0-0.1,0c-0.1,0-0.1,0-0.2,0.1c0,0,0,0-0.1,0c0,0-0.1,0-0.1,0.1
	c0,0,0,0-0.1,0c0,0-0.1,0-0.1,0.1c0,0,0,0-0.1,0c0,0-0.1,0.1-0.1,0.1c0,0,0,0,0,0c0,0-0.1,0.1-0.1,0.1c0,0,0,0,0,0
	c0,0-0.1,0.1-0.1,0.1c0,0,0,0,0,0.1c0,0-0.1,0.1-0.1,0.1c0,0,0,0,0,0.1c0,0,0,0.1-0.1,0.1c0,0,0,0,0,0.1c0,0,0,0.1-0.1,0.1
	c0,0,0,0.1,0,0.1c0,0,0,0.1,0,0.1c0,0,0,0,0,0c0,0,0,0.1,0,0.1c0,0,0,0.1,0,0.1c0,0,0,0.1,0,0.1C0,2,0,2,0,2.1c0,0,0,0,0,0.1
	c0,0.1,0,0.1,0,0.2v0c0,0.7,0.3,1.4,0.9,1.9l1.3,1l2.2,1.7l18.3,14.4c0.4,0.3,0.8,0.5,1.3,0.5c0.5,0,0.9-0.2,1.3-0.5L43.6,6.9
	l2.2-1.7l1.3-1C47.7,3.8,48,3.1,48,2.3v0C48,2.3,48,2.2,48,2.1z"/>
<path fill="#F5DC60" d="M0.9,4.2l1.3,1l2.2,1.7l18.3,14.4c0.4,0.3,0.8,0.5,1.3,0.5V39H2.2C1,39,0,37.9,0,36.6V2.3
	C0,3.1,0.3,3.8,0.9,4.2z"/>
<path fill="#EEBF00" d="M0.9,4.2l1.3,1l2.2,1.7l18.3,14.4c0.4,0.3,0.8,0.5,1.3,0.5V0H2.2C2.1,0,2,0,2,0c0,0,0,0-0.1,0
	c0,0-0.1,0-0.1,0c0,0-0.1,0-0.1,0c0,0-0.1,0-0.1,0c0,0,0,0-0.1,0c-0.1,0-0.1,0-0.2,0.1c0,0,0,0-0.1,0c0,0-0.1,0-0.1,0.1
	c0,0,0,0-0.1,0c0,0-0.1,0-0.1,0.1c0,0,0,0-0.1,0c0,0-0.1,0.1-0.1,0.1c0,0,0,0,0,0c0,0-0.1,0.1-0.1,0.1c0,0,0,0,0,0
	c0,0-0.1,0.1-0.1,0.1c0,0,0,0,0,0.1c0,0-0.1,0.1-0.1,0.1c0,0,0,0,0,0.1c0,0,0,0.1-0.1,0.1c0,0,0,0,0,0.1c0,0,0,0.1-0.1,0.1
	c0,0,0,0.1,0,0.1c0,0,0,0.1,0,0.1c0,0,0,0,0,0c0,0,0,0.1,0,0.1c0,0,0,0.1,0,0.1c0,0,0,0.1,0,0.1C0,2,0,2,0,2.1c0,0,0,0,0,0.1
	c0,0.1,0,0.1,0,0.2v0C0,3.1,0.3,3.8,0.9,4.2z"/>
</svg>
