<?xml version="1.0" encoding="utf-8"?>
<!-- Generator: Adobe Illustrator 18.0.0, SVG Export Plug-In . SVG Version: 6.00 Build 0)  -->
<!DOCTYPE svg PUBLIC "-//W3C//DTD SVG 1.1//EN" "http://www.w3.org/Graphics/SVG/1.1/DTD/svg11.dtd">
<svg version="1.1" id="Layer_1" xmlns="http://www.w3.org/2000/svg" xmlns:xlink="http://www.w3.org/1999/xlink" x="0px" y="0px"
	 viewBox="0 0 30 30" enable-background="new 0 0 30 30" xml:space="preserve">
<g>
	<g>
		<path d="M29.9,12.3L17.7,0.2c-0.2-0.2-0.2-0.2-0.3-0.2c-0.2,0-0.2,0.2-0.3,0.2L9,10.8c-0.2,0.2-0.2,0.5,0,0.6l9.5,9.5
			c0.2,0.2,0.2,0.2,0.3,0.2c0.2,0,0.2,0,0.3-0.2l10.6-8.1c0.2-0.2,0.2-0.2,0.2-0.3C30.1,12.5,30.1,12.5,29.9,12.3z M19.1,19.9
			l-9.1-9l7.4-9.8l11.4,11.2L19.1,19.9z"/>
	</g>
</g>
<g>
	<g>
		<path d="M26.2,11.8l-7.1,5.4l-6.6-6.6l-0.6,0.6l6.9,6.9c0.2,0.2,0.2,0.2,0.3,0.2c0.2,0,0.2,0,0.3-0.2l7.4-5.5L26.2,11.8z"/>
	</g>
</g>
<g>
	<g>
		<path d="M17.7,18.6l-6.3-6.3c-0.2-0.2-0.3-0.2-0.5-0.2l-7.8,4C3,16.3,3,16.3,3,16.4l-2.8,13c0,0.2,0,0.3,0.2,0.5
			C0.5,30,0.5,30,0.7,30h0.2l13.1-2.8c0.2,0,0.2-0.2,0.3-0.2l4-7.8C17.9,18.9,17.7,18.7,17.7,18.6z M13.1,26.4l-12,2.8l2.8-11.9
			l7.4-3.7l5.8,5.8L13.1,26.4z"/>
	</g>
</g>
<g>
	<g>
		<path d="M8.8,19c-1.2,0-2,0.9-2,2c0,1.2,0.9,2,2,2c1.1,0,2-0.9,2-2C11,19.9,10.1,19,8.8,19z M8.8,22.2c-0.6,0-1.2-0.6-1.2-1.2
			s0.5-1.2,1.2-1.2c0.8,0,1.2,0.6,1.2,1.2S9.4,22.2,8.8,22.2z"/>
	</g>
</g>
<g>
	<g>
		<polygon points="0,29.3 7.4,21.9 8.1,22.6 0.7,29.9 		"/>
	</g>
</g>
</svg>
