<?xml version="1.0" encoding="iso-8859-1"?>
<!-- Generator: Adobe Illustrator 19.0.0, SVG Export Plug-In . SVG Version: 6.00 Build 0)  -->
<svg xmlns="http://www.w3.org/2000/svg" xmlns:xlink="http://www.w3.org/1999/xlink" version="1.1" id="Layer_1" x="0px" y="0px" viewBox="0 0 512.011 512.011" style="enable-background:new 0 0 512.011 512.011;" xml:space="preserve">
<g>
	<g>
		<path d="M509.665,208.12L303.897,2.352c-1.632-1.64-3.912-2.496-6.184-2.328c-2.312,0.152-4.432,1.296-5.832,3.128    l-136.72,178.992c-2.432,3.184-2.128,7.68,0.704,10.512l163.488,163.488c1.552,1.552,3.6,2.344,5.656,2.344    c1.704,0,3.416-0.544,4.864-1.64l178.992-136.712c1.832-1.408,2.968-3.528,3.128-5.832    C512.145,212.008,511.297,209.752,509.665,208.12z M325.721,339.88L172.129,186.296L299.041,20.128l192.84,192.848L325.721,339.88    z"/>
	</g>
</g>
<g>
	<g>
		<path d="M446.849,201.64l-119.656,91.4L215.561,181.416l-11.312,11.312l116.576,116.576c1.544,1.552,3.6,2.344,5.656,2.344    c1.704,0,3.408-0.536,4.856-1.64l125.232-95.648L446.849,201.64z"/>
	</g>
</g>
<g>
	<g>
		<path d="M301.993,316.16L195.857,210.016c-2.432-2.44-6.16-3.048-9.248-1.496L52.825,275.784c-2.16,1.088-3.712,3.08-4.224,5.44    L0.185,502.296c-0.584,2.664,0.232,5.44,2.16,7.368c1.512,1.512,3.56,2.344,5.656,2.344c0.568,0,1.144-0.064,1.712-0.184    l221.072-48.416c2.36-0.512,4.352-2.056,5.44-4.216l67.264-133.784C305.033,322.328,304.433,318.6,301.993,316.16z M223.641,448.6    L18.489,493.528l44.928-205.152l125.216-62.96l97.968,97.976L223.641,448.6z"/>
	</g>
</g>
<g>
	<g>
		<path d="M152.169,324.472c-19.504,0-35.368,15.864-35.368,35.368c0,19.512,15.864,35.376,35.368,35.376    c19.504,0,35.368-15.872,35.368-35.376C187.537,340.336,171.673,324.472,152.169,324.472z M152.169,379.216    c-10.68,0-19.368-8.696-19.368-19.376c0-10.68,8.688-19.368,19.368-19.368s19.368,8.688,19.368,19.368    S162.849,379.216,152.169,379.216z"/>
	</g>
</g>
<g>
	<g>
		
			<rect x="-17.836" y="433.576" transform="matrix(0.7071 -0.7071 0.7071 0.7071 -291.6088 179.1454)" width="176.558" height="16"/>
	</g>
</g>
<g>
</g>
<g>
</g>
<g>
</g>
<g>
</g>
<g>
</g>
<g>
</g>
<g>
</g>
<g>
</g>
<g>
</g>
<g>
</g>
<g>
</g>
<g>
</g>
<g>
</g>
<g>
</g>
<g>
</g>
</svg>
