<?xml version="1.0" encoding="utf-8"?>
<!-- Generator: Adobe Illustrator 18.0.0, SVG Export Plug-In . SVG Version: 6.00 Build 0)  -->
<!DOCTYPE svg PUBLIC "-//W3C//DTD SVG 1.1//EN" "http://www.w3.org/Graphics/SVG/1.1/DTD/svg11.dtd">
<svg version="1.1" id="Layer_1" xmlns="http://www.w3.org/2000/svg" xmlns:xlink="http://www.w3.org/1999/xlink" x="0px" y="0px"
	 viewBox="0 0 48 42" enable-background="new 0 0 48 42" xml:space="preserve">
<path fill="#76A9EA" d="M47.1,4.9c-1.1,0.5-2.2,0.9-3.3,1.2C45,4.8,46,3.2,46.5,1.5l0,0c0.2-0.5-0.4-0.9-0.8-0.7l0,0
	c-1.6,1-3.3,1.7-5.1,2.2c-0.1,0-0.2,0-0.3,0c-0.3,0-0.6-0.1-0.9-0.4C37.6,1,35.1,0,32.6,0c-1.1,0-2.2,0.2-3.3,0.5
	c-3.4,1.1-5.9,4-6.8,7.6c-0.3,1.3-0.4,2.7-0.2,4c0,0.2-0.1,0.3-0.1,0.3c-0.1,0.1-0.2,0.1-0.3,0.1c0,0,0,0,0,0
	c-7.3-0.7-14-4.4-18.7-10.5l0,0C3,1.8,2.6,1.8,2.4,2.2l0,0C1.5,3.8,1,5.7,1,7.6c0,2.9,1.1,5.7,3.1,7.7c-0.8-0.2-1.6-0.5-2.4-1l0,0
	c-0.4-0.2-0.8,0.1-0.8,0.5l0,0c-0.1,4.4,2.4,8.3,6,10c-0.1,0-0.1,0-0.2,0c-0.6,0-1.2-0.1-1.7-0.2l0,0c-0.4-0.1-0.7,0.3-0.6,0.7l0,0
	c1.2,3.9,4.4,6.8,8.2,7.4c-3.2,2.2-6.9,3.4-10.7,3.4l-1.2,0c-0.4,0-0.7,0.3-0.8,0.6c-0.1,0.4,0.1,0.8,0.4,1c4.3,2.6,9.3,4,14.3,4
	c4.4,0,8.5-0.9,12.2-2.7c3.4-1.7,6.4-4,8.9-7c2.4-2.8,4.2-6,5.5-9.6c1.2-3.4,1.9-7,1.9-10.5v-0.2c0-0.6,0.2-1.1,0.7-1.4
	c1.6-1.4,3-3,4.1-4.7l0,0C48.1,5.2,47.6,4.6,47.1,4.9L47.1,4.9z"/>
</svg>
