<?xml version="1.0" encoding="utf-8"?>
<!-- Generator: Adobe Illustrator 18.0.0, SVG Export Plug-In . SVG Version: 6.00 Build 0)  -->
<!DOCTYPE svg PUBLIC "-//W3C//DTD SVG 1.1//EN" "http://www.w3.org/Graphics/SVG/1.1/DTD/svg11.dtd">
<svg version="1.1" id="Layer_1" xmlns="http://www.w3.org/2000/svg" xmlns:xlink="http://www.w3.org/1999/xlink" x="0px" y="0px"
	 viewBox="0 0 48 42" enable-background="new 0 0 48 42" xml:space="preserve">
<g>
	<path fill="#7AD06D" d="M23.2,0C11.7,0.6,2.8,9.8,2.8,20.9c0,3.4,0.8,6.6,2.4,9.4L2.8,41c-0.1,0.6,0.5,1.1,1,1l10.9-2.5
		c2.7,1.3,5.9,2.1,9.2,2.2c11.7,0.2,21.5-8.8,21.8-20.2C46,9.3,35.7-0.6,23.2,0z M36.1,32.4c-3.2,3.1-7.4,4.8-11.9,4.8
		c-2.6,0-5.1-0.6-7.5-1.7l-1.6-0.7l-6.7,1.5l1.4-6.6l-0.7-1.4C8,26,7.3,23.5,7.3,20.9c0-4.4,1.7-8.5,4.9-11.5
		c3.1-3.1,7.4-4.8,11.9-4.8S32.8,6.3,36,9.4c3.2,3.1,4.9,7.2,4.9,11.5C41,25.1,39.3,29.3,36.1,32.4z"/>
	<path fill="#7AD06D" d="M34.6,25.3l-4.2-1.2c-0.5-0.2-1.1,0-1.6,0.4l-1,1c-0.5,0.4-1.1,0.6-1.6,0.3c-2-0.8-6.1-4.3-7.1-6.1
		c-0.3-0.5-0.3-1.2,0.1-1.6l0.9-1.1c0.4-0.4,0.5-1,0.2-1.5l-1.7-3.8c-0.5-0.9-1.6-1.2-2.5-0.5c-1.2,1-2.6,2.4-2.7,4
		c-0.3,2.8,0.9,6.4,5.7,10.7c5.5,4.9,9.9,5.6,12.7,4.9c1.6-0.4,2.9-1.9,3.7-3.1C36.1,26.8,35.6,25.6,34.6,25.3z"/>
</g>
</svg>
